<?xml version="1.0" encoding="utf-8"?>
<!-- Generator: Adobe Illustrator 17.0.0, SVG Export Plug-In . SVG Version: 6.00 Build 0)  -->
<!DOCTYPE svg PUBLIC "-//W3C//DTD SVG 1.1//EN" "http://www.w3.org/Graphics/SVG/1.1/DTD/svg11.dtd">
<svg version="1.1" id="Layer_1" xmlns="http://www.w3.org/2000/svg" xmlns:xlink="http://www.w3.org/1999/xlink" x="0px" y="0px"
	 width="612px" height="612px" viewBox="0 90 612 612" enable-background="new 0 90 612 612" xml:space="preserve">
<g transform="translate(0,0)">
	<path fill="#FFFFFF" d="M218.025,197.399c-72.795-0.072-141.633,25.52-193.33,78.95v33.827
		c59.718-75.544,150.179-102.367,244.967-85.943c-91.8-0.837-181.353,36.218-244.967,111.642v36.577
		c59.825-85.465,150.777-127.181,244.728-126.105C152.402,272.524,66.161,340.538,26.261,433.055
		c73.225,82.955,196.306,140.927,295.756,158.02c97.418,15.539,196.031,2.749,269.543-44.944v-27.134
		c-68.252,50.323-166.985,65.742-265.957,49.964c-11.116-1.673-22.233-3.945-33.349-6.455c108.056,12.67,219.34-9.802,299.306-71.36
		V462.22c-54.028,47.334-128.257,73.273-206.789,79.249c65.862-15.778,131.843-49.964,196.868-101.721l8.367-6.694
		c-16.137-21.994-34.066-44.705-50.084-62.515c-70.523-89.887-162.682-146.665-254.243-165.933
		c-19.962-4.196-39.923-6.574-59.646-7.1c-2.749,0-5.618-0.12-8.009-0.12L218.025,197.399z M312.335,255.312
		c8.726,10.28,15.898,21.516,21.874,33.349c-15.539,5.857-26.655,20.918-26.655,38.489c0,22.711,18.408,41.119,41.119,41.119
		c2.391,0,4.662-0.239,6.933-0.598c5.857,65.025-12.431,133.038-43.27,173.798C260.1,470.707,251.733,335.398,312.335,255.312
		L312.335,255.312z M257.351,271.09c-49.725,21.277-84.628,70.762-84.628,128.377c0,55.582,32.273,103.514,79.249,125.986
		c-52.713-8.128-104.59-29.524-155.307-64.786c-9.24-27.373-10.806-54.745-3.383-82.238
		C143.437,319.261,199.259,283.043,257.351,271.09L257.351,271.09z M397.441,288.78c41.358,18.766,82.835,49.845,123.595,94.43
		c6.096,24.862,5.02,49.605-2.391,74.468c-44.346,28.927-88.573,49.008-132.321,60.363c39.445-24.623,65.742-68.491,65.742-118.575
		C446.449,355.12,426.488,311.85,397.441,288.78L397.441,288.78z"/>
</g>
</svg>
