<?xml version="1.0" encoding="utf-8"?>
<!-- Generator: Adobe Illustrator 17.0.0, SVG Export Plug-In . SVG Version: 6.00 Build 0)  -->
<!DOCTYPE svg PUBLIC "-//W3C//DTD SVG 1.1//EN" "http://www.w3.org/Graphics/SVG/1.1/DTD/svg11.dtd">
<svg version="1.1" id="Layer_1" xmlns="http://www.w3.org/2000/svg" xmlns:xlink="http://www.w3.org/1999/xlink" x="0px" y="0px"
	 width="612px" height="612px" viewBox="0 90 612 612" enable-background="new 0 90 612 612" xml:space="preserve">
<g transform="translate(0,0)">
	<path fill="#FFFFFF" d="M325.723,112.599c-15.27,0.203-31.353,3.052-48.224,9.077c-36.057,66.113-81.655,144.518-150.275,213.363
		c-25.329,25.412-46.892,53.717-62.491,81.655c1.547,7.545,5.957,13.925,12.814,20.806c13.139,13.187,36.887,25.84,65.256,39.744
		c55.359,27.128,128.238,60.232,174.963,129.652l233.833,0.038c-24.143-84.669-119.861-120.87-190.131-100.335
		c-0.087,0.036-0.173,0.079-0.263,0.114c-1.924,0.757-3.909,1.36-5.937,1.868c-0.029,0.006-0.048,0.03-0.077,0.036
		c-10.59,2.634-22.496,2.008-34.813-0.485c-29.632-6-63.065-23.542-73.323-54.61c-34.204-103.601,19.902-214.848,93.421-266.889
		c27.569-19.517,58.642-30.896,89.015-29.249c0.172,0.01,0.347,0.027,0.521,0.036c-28.915-27.181-63.746-45.362-104.291-44.824
		L325.723,112.599z M423.439,179.536c-22.966,0.012-47.112,9.072-70.075,25.326c-65.317,46.237-115.529,149.443-85.092,241.64
		c6.128,18.563,32.572,34.858,56.517,39.708c11.971,2.423,22.971,1.814,28.349-0.338c2.689-1.076,3.793-2.199,4.296-3.062
		c0.504-0.861,0.968-1.988,0.299-5.229c-10.853-52.793-3.279-101.135,26.934-136.827c28.193-33.305,75.009-54.341,140.337-60.586
		c-17.946-56.353-44.788-85.137-73.289-95.661c-7.658-2.83-15.577-4.43-23.682-4.858c-1.52-0.08-3.064-0.112-4.595-0.112H423.439z
		 M52.331,441.685c-6.461,15.006-10.92,29.591-13.035,43.254c8.58,33.182,62.034,66.256,108.886,73.325
		c2.036-7.14,6.971-13.716,12.288-17.033c60.973,34.478,103.012,72.56,121.922,120.727h274.437
		c0.833-11.491,0.526-22.367-0.747-32.685l-244.219-0.036h-6.126l-3.287-5.194c-42.32-66.43-112.276-98.709-169.471-126.739
		c-28.598-14.014-53.992-26.698-71.271-44.04C58.147,449.69,54.992,445.823,52.331,441.685L52.331,441.685z"/>
</g>
</svg>
