<?xml version="1.0" encoding="iso-8859-1"?>
<!-- Generator: Adobe Illustrator 17.0.0, SVG Export Plug-In . SVG Version: 6.00 Build 0)  -->
<!DOCTYPE svg PUBLIC "-//W3C//DTD SVG 1.1//EN" "http://www.w3.org/Graphics/SVG/1.1/DTD/svg11.dtd">
<svg version="1.1" id="Layer_1" xmlns="http://www.w3.org/2000/svg" xmlns:xlink="http://www.w3.org/1999/xlink" x="0px" y="0px"
	 width="612px" height="612px" viewBox="0 90 612 612" style="enable-background:new 0 90 612 612;" xml:space="preserve">
<g transform="translate(0,0)">
	<path style="fill:#FFFFFF;" d="M57.002,112.897c-0.449-0.004-0.894,0.019-1.346,0.038c-7.224,0.293-14.645,3.365-20.655,9.375
		c-12.021,12.022-12.308,29.792-2.056,40.043c4.71,4.71,11.009,7.213,17.595,7.36l3.66-3.697l26.483-26.486l1.681-1.681
		c-0.147-6.592-2.65-12.885-7.358-17.593c-4.808-4.805-11.263-7.308-18.005-7.358L57.002,112.897z M90.806,161.009L75.38,176.437
		c16.32,39.738,44.426,67.265,80.609,88.116l22.412-22.412c-22.551-35.808-51.713-63.568-87.594-81.131L90.806,161.009z
		 M245.412,206.729L119.419,332.761l28.501,28.501c35.599-48.558,78.191-90.043,126.105-125.919
		C274.025,235.343,245.412,206.729,245.412,206.729z M260.728,274.152c-26.855,22.356-51.617,46.709-73.96,73.438
		c40.704,52.48,91.176,98.942,146.313,134.323c-24.932,2.034-48.293,1.528-70-1.53c40.82,29.698,85.139,54.566,131.783,73.099
		c-33.752,3.164-65.24,2.689-94.394-1.42c86.702,63.08,185.838,109.001,290.537,128.46
		c-24.612-113.236-69.456-213.292-131.298-297.745c4.261,29.825,5.423,62.546,2.952,98.389
		c-19.215-49.16-43.921-94.218-73.588-134.736c3.171,22.202,4.172,46.44,2.654,72.842
		C356.299,362.75,312.257,313.802,260.728,274.152L260.728,274.152z"/>
</g>
</svg>
