<?xml version="1.0" encoding="utf-8"?>
<!DOCTYPE svg PUBLIC "-//W3C//DTD SVG 1.1//EN" "http://www.w3.org/Graphics/SVG/1.1/DTD/svg11.dtd">
<svg version="1.1" id="Layer_1" xmlns="http://www.w3.org/2000/svg" xmlns:xlink="http://www.w3.org/1999/xlink" x="0px" y="0px"
	 width="612px" height="647px" viewBox="0 73.5 612 647" enable-background="new 0 73.5 612 647" xml:space="preserve">
<g transform="translate(0,0)">
	<path fill="#FFFFFF" d="M295.242,128.25v27.743C171.229,161.48,71.477,261.229,65.993,385.242H38.25v21.516h27.743
		c5.486,124.014,105.235,223.765,229.249,229.249v27.743h21.516v-27.743c124.014-5.487,223.765-105.235,229.249-229.249h27.743
		v-21.516h-27.743c-5.487-124.014-105.235-223.765-229.249-229.249V128.25H295.242z M295.242,177.524V243h21.516v-65.476
		c112.359,5.423,202.295,95.358,207.718,207.718H459v21.516h65.476c-5.423,112.359-95.358,202.295-207.718,207.718V549h-21.516
		v65.476c-112.359-5.423-202.295-95.358-207.718-207.718H153v-21.516H87.524C92.948,272.883,182.883,182.948,295.242,177.524z
		 M295.242,357.75v27.492H267.75v21.516h27.492v27.492h21.516v-27.492h27.492v-21.516h-27.492V357.75H295.242z"/>
</g>
</svg>
