<?xml version="1.0" encoding="iso-8859-1"?>
<!DOCTYPE svg PUBLIC "-//W3C//DTD SVG 1.1//EN" "http://www.w3.org/Graphics/SVG/1.1/DTD/svg11.dtd">
<svg version="1.1" id="Layer_1" xmlns="http://www.w3.org/2000/svg" xmlns:xlink="http://www.w3.org/1999/xlink" x="0px" y="0px"
	 width="612px" height="612px" viewBox="0 90 612 612" style="enable-background:new 0 90 612 612;" xml:space="preserve">
<g transform="translate(0,0)">
	<path style="fill:#FFFFFF;" d="M588.878,114.392l-141.757,67.2l47.589,11.205L390.754,296.753L25.586,606.786l0.825,0.821
		l125.209-56.738L96.186,677.385l1.082,1.083L422.99,296.117l87.521-87.518l11.167,47.585L588.878,114.392L588.878,114.392z
		 M23.196,114.467c-1.61,28.006,5.977,47.749,19.798,62.417l28.799,361.319l20.992-17.779L66.823,194.775
		c69.298,38.195,202.123,30.08,259.272,127.564l79.638-67.612l1.458-1.456c-57.275-117.053-304.382-44.08-383.994-138.803
		L23.196,114.467z M452.948,295.628l-1.382,1.383l-68.432,80.311c98.023,57.309,90.35,190.374,128.237,260.614l-325.313-29.285
		l-17.705,20.808l360.461,32.423c14.918,14.682,35.142,22.811,64.174,21.141c-95.565-80.325-21.946-329.612-140.038-387.394
		L452.948,295.628z"/>
</g>
</svg>
