<?xml version="1.0" encoding="utf-8"?>
<!-- Generator: Adobe Illustrator 28.0.0, SVG Export Plug-In . SVG Version: 6.00 Build 0)  -->
<svg version="1.1" id="Layer_1" xmlns="http://www.w3.org/2000/svg" xmlns:xlink="http://www.w3.org/1999/xlink" x="0px" y="0px"
	 viewBox="0 0 512 512" style="enable-background:new 0 0 512 512;" xml:space="preserve">
<style type="text/css">
	.st0{fill:#FFFFFF;}
</style>
<g transform="translate(0,0)">
	<path class="st0" d="M85.9,21c-2.2,31.6-95.2,45.2-4.8,99C57.8,73.5,145.6,62.4,85.9,21z M278.5,23c-32,14.2-22.9,55.3-8.2,73
		c28,33.8-31.3,52.2-49.1-5.2c-5.4,17.6-24.5,21.5-35.6,7.6c-7-8.8-19.5-31.6-12.2-53.7c-20.9,14.7-31.7,45-19.3,63.1
		c29.3,42.5-11.7,75.3-59,40.9c36.5,47.7,21.2,119.9-16.3,144.2c14.7-32,8.2-88.2-22.2-99.3C71,236.2,40,268.9,19.8,259.7v235h52.6
		c6.2-23.8,16-46.7,30.5-61.4c16.9-17.2,41.3-29.4,77.8-36.2l15.6-2.9l-10.1-12.2c-20.2-24.4-33.4-59.5-33.4-98.7
		c0-37.7,12-71.7,30.9-95.9c18.9-24.2,44.3-38.5,72.1-38.5c27.8,0,53.2,14.3,72.1,38.5c18.9,24.2,30.9,58.2,30.9,95.9
		c0,38.2-12.1,73.2-31.4,97.4l-10,12.6l15.9,2.5c40,6.3,65.6,18.5,82.5,35.8c14.3,14.6,23.4,39,28.6,63.2h50.8V238.8
		c-7-23.8-17.2-46.4-32.6-51.1c19.5,40,1.3,129.3-61.9,141.3c26.7-22.4,45.2-78.5,35-101.6c-34.8,47.6-79.1,2.6-34.4-43.2
		c29.7-30.4,39.9-68.8,10.5-111c9.1,40.2-37.8,84.9-69.9,56.7C320.1,110.8,331.6,69,365.6,58c-27-9.3-47.7,2.8-52.6,21.6
		C295.3,62.5,272.2,51.4,278.5,23z M204.4,265.8c-9.2-0.2-19.1,3.6-29.1,13.3c14.6,29.6,39.9,25.7,67.9,13.2
		C233.4,277.8,219.7,266.2,204.4,265.8z M303.5,265.8c-15.4,0.4-29,11.9-38.9,26.5c28,12.5,53.3,16.4,67.9-13.2
		C322.5,269.5,312.7,265.6,303.5,265.8L303.5,265.8z M197,350.8c19.3,61.4,100.9,60.7,121.7,0C276.5,359.3,238,360.4,197,350.8z"/>
</g>
</svg>
