<?xml version="1.0" encoding="utf-8"?>
<!-- Generator: Adobe Illustrator 28.0.0, SVG Export Plug-In . SVG Version: 6.00 Build 0)  -->
<svg version="1.1" id="Layer_1" xmlns="http://www.w3.org/2000/svg" xmlns:xlink="http://www.w3.org/1999/xlink" x="0px" y="0px"
	 viewBox="0 0 512 512" style="enable-background:new 0 0 512 512;" xml:space="preserve">
<style type="text/css">
	.st0{fill:#FFFFFF;}
</style>
<path class="st0" d="M381.7,27l-14.5,20.4l49.5,35.1l14.5-20.3L381.7,27z M324.3,39.3L310.2,60l111.3,76.2l14.1-20.7L324.3,39.3
	L324.3,39.3z M317,92.7l-69.9,82.8c-10.3-2.1-20.9-3.2-31.8-3.2c-86.8,0-157.2,70.5-157.2,157.3C58,416,128.5,487,215.3,487
	s157.3-71,157.3-157.4c0-37.8-13.4-72.5-35.6-99.6l51.4-86.9L317,92.7z M324.4,131.7l29.5,19.5l-46.5,78
	c26.1,23.9,42.5,58.2,42.5,96.4c0,72-58.5,130.4-130.6,130.4c-72,0-130.6-58.4-130.6-130.4c0-72.1,58.6-130.6,130.6-130.6
	c22.6,0,43.9,5.8,62.5,15.9L324.4,131.7z M292.9,312.2c-47.3-0.7-126.2,58.3-178.3,13.5c0.1,57.7,47,104.3,104.7,104.3
	c56.1,0,102-44,104.6-99.5C316.9,317.3,306.1,312.4,292.9,312.2z M281.4,335.5c5.1-0.1,9.7,1.5,12.7,5c6.9,7.9,3.2,22.4-8.3,32.4
	c-11.4,10-26.3,11.7-33.2,3.8c-6.9-7.9-3.2-22.4,8.2-32.4C267.3,338.7,274.8,335.7,281.4,335.5L281.4,335.5z M224.9,384.6
	c1.2,0,2.4,0.1,3.7,0.3c9.9,1.5,17.2,8.2,16.2,15.1c-1,7-9.8,11-19.8,10c-9.9-2-17.2-8-16.2-15.3
	C209.7,388.7,216.5,384.6,224.9,384.6z"/>
</svg>
