<?xml version="1.0" encoding="iso-8859-1"?>
<!-- Generator: Adobe Illustrator 17.0.0, SVG Export Plug-In . SVG Version: 6.00 Build 0)  -->
<!DOCTYPE svg PUBLIC "-//W3C//DTD SVG 1.1//EN" "http://www.w3.org/Graphics/SVG/1.1/DTD/svg11.dtd">
<svg version="1.1" id="Layer_1" xmlns="http://www.w3.org/2000/svg" xmlns:xlink="http://www.w3.org/1999/xlink" x="0px" y="0px"
	 width="32px" height="46px" viewBox="0.456 0.208 32 46" style="enable-background:new 0.456 0.208 32 46;" xml:space="preserve">
<g id="Layer_2" style="display:none;">
	<rect x="-631.813" y="-514.333" style="display:inline;fill:#383C98;" width="120" height="129.125"/>
</g>
<g>
	<path style="fill:#726658;" d="M1.383,34.626c1.514-3.64,2.26-7.48,2.219-11.423c0.042-3.934-0.705-7.773-2.219-11.412
		l25.92-10.928c2.982,7.075,4.455,14.548,4.38,22.225l-0.002,0.127c0.091,7.719-1.382,15.231-4.379,22.339L1.383,34.626z"/>
	<path d="M27.035,1.518c2.82,6.857,4.215,14.087,4.149,21.511l-0.005,0.013l0.002,0.179c0.088,7.482-1.306,14.769-4.147,21.677
		L2.032,34.357c1.414-3.564,2.11-7.311,2.071-11.138c0.04-3.845-0.656-7.594-2.07-11.159L27.035,1.518 M27.568,0.208L0.727,11.525
		c1.593,3.653,2.418,7.633,2.376,11.683H3.102c0.042,4.05-0.783,8.03-2.376,11.683l26.841,11.317
		c3.108-7.198,4.708-15.03,4.614-22.999l0.001-0.002C32.276,15.239,30.676,7.406,27.568,0.208L27.568,0.208z"/>
</g>
</svg>
